<mxfile host="app.diagrams.net" modified="2020-12-14T01:56:44.727Z" agent="5.0 (X11)" etag="AFqjBpdqTRvEW9zCAgyG" version="14.0.1" type="github">
  <diagram id="qq186-XgLqmmVblO8HAK" name="Page-1">
    <mxGraphModel dx="1240" dy="713" grid="1" gridSize="10" guides="1" tooltips="1" connect="1" arrows="1" fold="1" page="1" pageScale="1" pageWidth="1654" pageHeight="1169" math="0" shadow="0">
      <root>
        <mxCell id="0" />
        <mxCell id="1" parent="0" />
        <mxCell id="uuh9TwTTnLupBJkhVZy6-353" value="" style="edgeStyle=none;rounded=0;orthogonalLoop=1;jettySize=auto;html=1;" parent="1" target="uuh9TwTTnLupBJkhVZy6-299" edge="1">
          <mxGeometry relative="1" as="geometry">
            <mxPoint x="760" y="1295.5" as="sourcePoint" />
          </mxGeometry>
        </mxCell>
        <mxCell id="uuh9TwTTnLupBJkhVZy6-350" value="" style="edgeStyle=none;rounded=0;orthogonalLoop=1;jettySize=auto;html=1;" parent="1" target="uuh9TwTTnLupBJkhVZy6-288" edge="1">
          <mxGeometry relative="1" as="geometry">
            <mxPoint x="760" y="940" as="sourcePoint" />
          </mxGeometry>
        </mxCell>
        <mxCell id="uuh9TwTTnLupBJkhVZy6-351" value="" style="edgeStyle=none;rounded=0;orthogonalLoop=1;jettySize=auto;html=1;" parent="1" target="uuh9TwTTnLupBJkhVZy6-297" edge="1">
          <mxGeometry relative="1" as="geometry">
            <mxPoint x="760" y="1060" as="sourcePoint" />
          </mxGeometry>
        </mxCell>
        <mxCell id="uuh9TwTTnLupBJkhVZy6-352" value="" style="edgeStyle=none;rounded=0;orthogonalLoop=1;jettySize=auto;html=1;" parent="1" source="uuh9TwTTnLupBJkhVZy6-297" edge="1">
          <mxGeometry relative="1" as="geometry">
            <mxPoint x="760" y="1235.5" as="targetPoint" />
          </mxGeometry>
        </mxCell>
        <mxCell id="uuh9TwTTnLupBJkhVZy6-354" value="" style="edgeStyle=none;rounded=0;orthogonalLoop=1;jettySize=auto;html=1;" parent="1" target="uuh9TwTTnLupBJkhVZy6-300" edge="1">
          <mxGeometry relative="1" as="geometry">
            <mxPoint x="760" y="1415.5" as="sourcePoint" />
          </mxGeometry>
        </mxCell>
        <mxCell id="uuh9TwTTnLupBJkhVZy6-355" value="" style="edgeStyle=none;rounded=0;orthogonalLoop=1;jettySize=auto;html=1;" parent="1" target="uuh9TwTTnLupBJkhVZy6-301" edge="1">
          <mxGeometry relative="1" as="geometry">
            <mxPoint x="760" y="1536.9300000000003" as="sourcePoint" />
          </mxGeometry>
        </mxCell>
        <mxCell id="uuh9TwTTnLupBJkhVZy6-356" value="" style="edgeStyle=none;rounded=0;orthogonalLoop=1;jettySize=auto;html=1;" parent="1" target="uuh9TwTTnLupBJkhVZy6-302" edge="1">
          <mxGeometry relative="1" as="geometry">
            <mxPoint x="760" y="1650" as="sourcePoint" />
          </mxGeometry>
        </mxCell>
        <mxCell id="uuh9TwTTnLupBJkhVZy6-345" value="" style="edgeStyle=none;rounded=0;orthogonalLoop=1;jettySize=auto;html=1;" parent="1" target="uuh9TwTTnLupBJkhVZy6-303" edge="1">
          <mxGeometry relative="1" as="geometry">
            <mxPoint x="760" y="1770" as="sourcePoint" />
          </mxGeometry>
        </mxCell>
        <mxCell id="noE92MuAFSFbdReMbTRC-33" style="edgeStyle=orthogonalEdgeStyle;curved=1;rounded=0;orthogonalLoop=1;jettySize=auto;html=1;exitX=1;exitY=0.5;exitDx=0;exitDy=0;entryX=0;entryY=0.5;entryDx=0;entryDy=0;" edge="1" parent="1" source="noE92MuAFSFbdReMbTRC-1" target="noE92MuAFSFbdReMbTRC-2">
          <mxGeometry relative="1" as="geometry" />
        </mxCell>
        <mxCell id="noE92MuAFSFbdReMbTRC-151" style="edgeStyle=orthogonalEdgeStyle;curved=1;rounded=0;orthogonalLoop=1;jettySize=auto;html=1;exitX=0.5;exitY=1;exitDx=0;exitDy=0;entryX=0;entryY=0.5;entryDx=0;entryDy=0;entryPerimeter=0;endArrow=none;endFill=0;" edge="1" parent="1" source="noE92MuAFSFbdReMbTRC-1" target="noE92MuAFSFbdReMbTRC-136">
          <mxGeometry relative="1" as="geometry" />
        </mxCell>
        <mxCell id="noE92MuAFSFbdReMbTRC-1" value="&lt;b&gt;1° Segundo A&#39;&lt;/b&gt;&lt;div&gt;Carros:Verde&lt;/div&gt;&lt;div&gt;Pedestres:Vermelho&lt;/div&gt;" style="rounded=1;whiteSpace=wrap;html=1;shadow=0;strokeColor=#000000;fillColor=#FFFFFF;" vertex="1" parent="1">
          <mxGeometry x="170" y="80" width="120" height="60" as="geometry" />
        </mxCell>
        <mxCell id="noE92MuAFSFbdReMbTRC-34" style="edgeStyle=orthogonalEdgeStyle;curved=1;rounded=0;orthogonalLoop=1;jettySize=auto;html=1;exitX=1;exitY=0.5;exitDx=0;exitDy=0;entryX=0;entryY=0.5;entryDx=0;entryDy=0;" edge="1" parent="1" source="noE92MuAFSFbdReMbTRC-2" target="noE92MuAFSFbdReMbTRC-3">
          <mxGeometry relative="1" as="geometry" />
        </mxCell>
        <mxCell id="noE92MuAFSFbdReMbTRC-159" style="edgeStyle=orthogonalEdgeStyle;curved=1;rounded=0;orthogonalLoop=1;jettySize=auto;html=1;entryX=0;entryY=0.5;entryDx=0;entryDy=0;entryPerimeter=0;endArrow=none;endFill=0;" edge="1" parent="1" source="noE92MuAFSFbdReMbTRC-2" target="noE92MuAFSFbdReMbTRC-136">
          <mxGeometry relative="1" as="geometry" />
        </mxCell>
        <mxCell id="noE92MuAFSFbdReMbTRC-2" value="&lt;div&gt;&lt;b&gt;2° Segundo A&#39;&lt;/b&gt;&lt;/div&gt;&lt;div&gt;&lt;b&gt;&lt;/b&gt;Carros:Verde&lt;/div&gt;&lt;div&gt;Pedestres:Vermelho&lt;br&gt;&lt;/div&gt;" style="rounded=1;whiteSpace=wrap;html=1;shadow=0;strokeColor=#000000;fillColor=#FFFFFF;" vertex="1" parent="1">
          <mxGeometry x="370" y="80" width="120" height="60" as="geometry" />
        </mxCell>
        <mxCell id="noE92MuAFSFbdReMbTRC-35" style="edgeStyle=orthogonalEdgeStyle;curved=1;rounded=0;orthogonalLoop=1;jettySize=auto;html=1;exitX=1;exitY=0.5;exitDx=0;exitDy=0;entryX=0;entryY=0.5;entryDx=0;entryDy=0;" edge="1" parent="1" source="noE92MuAFSFbdReMbTRC-3" target="noE92MuAFSFbdReMbTRC-4">
          <mxGeometry relative="1" as="geometry" />
        </mxCell>
        <mxCell id="noE92MuAFSFbdReMbTRC-160" style="edgeStyle=orthogonalEdgeStyle;curved=1;rounded=0;orthogonalLoop=1;jettySize=auto;html=1;exitX=0.5;exitY=1;exitDx=0;exitDy=0;entryX=0;entryY=0.5;entryDx=0;entryDy=0;entryPerimeter=0;endArrow=none;endFill=0;" edge="1" parent="1" source="noE92MuAFSFbdReMbTRC-3" target="noE92MuAFSFbdReMbTRC-139">
          <mxGeometry relative="1" as="geometry" />
        </mxCell>
        <mxCell id="noE92MuAFSFbdReMbTRC-3" value="&lt;div&gt;&lt;b&gt;3° Segundo A&#39;&lt;/b&gt;&lt;/div&gt;&lt;div&gt;&lt;b&gt;&lt;/b&gt;Carros:Verde&lt;/div&gt;&lt;div&gt;Pedestres:Vermelho&lt;br&gt;&lt;/div&gt;" style="rounded=1;whiteSpace=wrap;html=1;shadow=0;strokeColor=#000000;fillColor=#FFFFFF;" vertex="1" parent="1">
          <mxGeometry x="580" y="80" width="120" height="60" as="geometry" />
        </mxCell>
        <mxCell id="noE92MuAFSFbdReMbTRC-36" style="edgeStyle=orthogonalEdgeStyle;curved=1;rounded=0;orthogonalLoop=1;jettySize=auto;html=1;exitX=1;exitY=0.5;exitDx=0;exitDy=0;entryX=0.5;entryY=0;entryDx=0;entryDy=0;" edge="1" parent="1" source="noE92MuAFSFbdReMbTRC-4" target="noE92MuAFSFbdReMbTRC-5">
          <mxGeometry relative="1" as="geometry" />
        </mxCell>
        <mxCell id="noE92MuAFSFbdReMbTRC-161" style="edgeStyle=orthogonalEdgeStyle;curved=1;rounded=0;orthogonalLoop=1;jettySize=auto;html=1;entryX=0;entryY=0.5;entryDx=0;entryDy=0;entryPerimeter=0;endArrow=none;endFill=0;" edge="1" parent="1" source="noE92MuAFSFbdReMbTRC-4" target="noE92MuAFSFbdReMbTRC-139">
          <mxGeometry relative="1" as="geometry" />
        </mxCell>
        <mxCell id="noE92MuAFSFbdReMbTRC-4" value="&lt;div&gt;&lt;b&gt;4° Segundo A&#39;&lt;/b&gt;&lt;/div&gt;&lt;div&gt;&lt;b&gt;&lt;/b&gt;Carros:Verde&lt;/div&gt;&lt;div&gt;Pedestres:Vermelho&lt;br&gt;&lt;/div&gt;" style="rounded=1;whiteSpace=wrap;html=1;shadow=0;strokeColor=#000000;fillColor=#FFFFFF;" vertex="1" parent="1">
          <mxGeometry x="800" y="80" width="120" height="60" as="geometry" />
        </mxCell>
        <mxCell id="noE92MuAFSFbdReMbTRC-37" style="edgeStyle=orthogonalEdgeStyle;curved=1;rounded=0;orthogonalLoop=1;jettySize=auto;html=1;exitX=0.5;exitY=1;exitDx=0;exitDy=0;entryX=0.5;entryY=0;entryDx=0;entryDy=0;" edge="1" parent="1" source="noE92MuAFSFbdReMbTRC-5" target="noE92MuAFSFbdReMbTRC-6">
          <mxGeometry relative="1" as="geometry" />
        </mxCell>
        <mxCell id="noE92MuAFSFbdReMbTRC-162" style="edgeStyle=orthogonalEdgeStyle;curved=1;rounded=0;orthogonalLoop=1;jettySize=auto;html=1;exitX=0;exitY=0.5;exitDx=0;exitDy=0;entryX=0;entryY=0.5;entryDx=0;entryDy=0;entryPerimeter=0;endArrow=none;endFill=0;" edge="1" parent="1" source="noE92MuAFSFbdReMbTRC-5" target="noE92MuAFSFbdReMbTRC-139">
          <mxGeometry relative="1" as="geometry" />
        </mxCell>
        <mxCell id="noE92MuAFSFbdReMbTRC-5" value="&lt;div&gt;&lt;b&gt;5° Segundo A&#39;&lt;/b&gt;&lt;/div&gt;&lt;div&gt;&lt;b&gt;&lt;/b&gt;Carros:Verde&lt;/div&gt;&lt;div&gt;Pedestres:Vermelho&lt;br&gt;&lt;/div&gt;" style="rounded=1;whiteSpace=wrap;html=1;shadow=0;strokeColor=#000000;fillColor=#FFFFFF;" vertex="1" parent="1">
          <mxGeometry x="950" y="190" width="120" height="60" as="geometry" />
        </mxCell>
        <mxCell id="noE92MuAFSFbdReMbTRC-38" style="edgeStyle=orthogonalEdgeStyle;curved=1;rounded=0;orthogonalLoop=1;jettySize=auto;html=1;exitX=0.5;exitY=1;exitDx=0;exitDy=0;" edge="1" parent="1" source="noE92MuAFSFbdReMbTRC-6" target="noE92MuAFSFbdReMbTRC-17">
          <mxGeometry relative="1" as="geometry" />
        </mxCell>
        <mxCell id="noE92MuAFSFbdReMbTRC-163" style="edgeStyle=orthogonalEdgeStyle;curved=1;rounded=0;orthogonalLoop=1;jettySize=auto;html=1;exitX=0;exitY=0.5;exitDx=0;exitDy=0;entryX=0;entryY=0.5;entryDx=0;entryDy=0;entryPerimeter=0;endArrow=none;endFill=0;" edge="1" parent="1" source="noE92MuAFSFbdReMbTRC-6" target="noE92MuAFSFbdReMbTRC-139">
          <mxGeometry relative="1" as="geometry" />
        </mxCell>
        <mxCell id="noE92MuAFSFbdReMbTRC-6" value="&lt;div&gt;&lt;b&gt;6° Segundo A&#39;&lt;/b&gt;&lt;/div&gt;&lt;div&gt;&lt;b&gt;&lt;/b&gt;Carros:Verde&lt;/div&gt;&lt;div&gt;Pedestres:Vermelho&lt;br&gt;&lt;/div&gt;" style="rounded=1;whiteSpace=wrap;html=1;shadow=0;strokeColor=#000000;fillColor=#FFFFFF;" vertex="1" parent="1">
          <mxGeometry x="950" y="310" width="120" height="60" as="geometry" />
        </mxCell>
        <mxCell id="noE92MuAFSFbdReMbTRC-39" style="edgeStyle=orthogonalEdgeStyle;curved=1;rounded=0;orthogonalLoop=1;jettySize=auto;html=1;exitX=0.5;exitY=1;exitDx=0;exitDy=0;" edge="1" parent="1" source="noE92MuAFSFbdReMbTRC-17" target="noE92MuAFSFbdReMbTRC-19">
          <mxGeometry relative="1" as="geometry" />
        </mxCell>
        <mxCell id="noE92MuAFSFbdReMbTRC-164" style="edgeStyle=orthogonalEdgeStyle;curved=1;rounded=0;orthogonalLoop=1;jettySize=auto;html=1;entryX=0;entryY=0.5;entryDx=0;entryDy=0;entryPerimeter=0;endArrow=none;endFill=0;" edge="1" parent="1" source="noE92MuAFSFbdReMbTRC-17" target="noE92MuAFSFbdReMbTRC-139">
          <mxGeometry relative="1" as="geometry" />
        </mxCell>
        <mxCell id="noE92MuAFSFbdReMbTRC-17" value="&lt;div&gt;&lt;div&gt;&lt;b&gt;7° Segundo A&#39;&lt;/b&gt;&lt;/div&gt;Carros:Amarelo&lt;/div&gt;&lt;div&gt;Pedestres:Vermelho&lt;br&gt;&lt;/div&gt;" style="rounded=1;whiteSpace=wrap;html=1;shadow=0;strokeColor=#000000;fillColor=#FFFFFF;" vertex="1" parent="1">
          <mxGeometry x="950" y="430" width="120" height="60" as="geometry" />
        </mxCell>
        <mxCell id="noE92MuAFSFbdReMbTRC-43" style="edgeStyle=orthogonalEdgeStyle;curved=1;rounded=0;orthogonalLoop=1;jettySize=auto;html=1;exitX=0;exitY=0.5;exitDx=0;exitDy=0;entryX=1;entryY=0.5;entryDx=0;entryDy=0;" edge="1" parent="1" source="noE92MuAFSFbdReMbTRC-18" target="noE92MuAFSFbdReMbTRC-22">
          <mxGeometry relative="1" as="geometry" />
        </mxCell>
        <mxCell id="noE92MuAFSFbdReMbTRC-168" style="edgeStyle=orthogonalEdgeStyle;curved=1;rounded=0;orthogonalLoop=1;jettySize=auto;html=1;exitX=0.5;exitY=0;exitDx=0;exitDy=0;entryX=0;entryY=0.5;entryDx=0;entryDy=0;entryPerimeter=0;endArrow=none;endFill=0;" edge="1" parent="1" source="noE92MuAFSFbdReMbTRC-18" target="noE92MuAFSFbdReMbTRC-136">
          <mxGeometry relative="1" as="geometry" />
        </mxCell>
        <mxCell id="noE92MuAFSFbdReMbTRC-18" value="&lt;div&gt;&lt;b&gt;11° Segundo A&#39;&lt;/b&gt;&lt;/div&gt;&lt;div&gt;Carros:Vermelho&lt;/div&gt;&lt;div&gt;Pedestres:Verde&lt;br&gt;&lt;/div&gt;" style="rounded=1;whiteSpace=wrap;html=1;shadow=0;strokeColor=#000000;fillColor=#FFFFFF;" vertex="1" parent="1">
          <mxGeometry x="360" y="645" width="120" height="60" as="geometry" />
        </mxCell>
        <mxCell id="noE92MuAFSFbdReMbTRC-40" style="edgeStyle=orthogonalEdgeStyle;curved=1;rounded=0;orthogonalLoop=1;jettySize=auto;html=1;entryX=1;entryY=0.5;entryDx=0;entryDy=0;exitX=0.5;exitY=1;exitDx=0;exitDy=0;" edge="1" parent="1" source="noE92MuAFSFbdReMbTRC-19" target="noE92MuAFSFbdReMbTRC-20">
          <mxGeometry relative="1" as="geometry" />
        </mxCell>
        <mxCell id="noE92MuAFSFbdReMbTRC-165" style="edgeStyle=orthogonalEdgeStyle;curved=1;rounded=0;orthogonalLoop=1;jettySize=auto;html=1;entryX=0;entryY=0.5;entryDx=0;entryDy=0;entryPerimeter=0;endArrow=none;endFill=0;" edge="1" parent="1" source="noE92MuAFSFbdReMbTRC-19" target="noE92MuAFSFbdReMbTRC-139">
          <mxGeometry relative="1" as="geometry" />
        </mxCell>
        <mxCell id="noE92MuAFSFbdReMbTRC-19" value="&lt;div&gt;&lt;b&gt;8° Segundo A&#39;&lt;/b&gt;&lt;/div&gt;&lt;div&gt;Carros:Vermelho&lt;/div&gt;&lt;div&gt;Pedestres:Verde&lt;br&gt;&lt;/div&gt;" style="rounded=1;whiteSpace=wrap;html=1;shadow=0;strokeColor=#000000;fillColor=#FFFFFF;" vertex="1" parent="1">
          <mxGeometry x="950" y="555" width="120" height="60" as="geometry" />
        </mxCell>
        <mxCell id="noE92MuAFSFbdReMbTRC-41" style="edgeStyle=orthogonalEdgeStyle;curved=1;rounded=0;orthogonalLoop=1;jettySize=auto;html=1;exitX=0;exitY=0.5;exitDx=0;exitDy=0;entryX=1;entryY=0.5;entryDx=0;entryDy=0;" edge="1" parent="1" source="noE92MuAFSFbdReMbTRC-20" target="noE92MuAFSFbdReMbTRC-21">
          <mxGeometry relative="1" as="geometry" />
        </mxCell>
        <mxCell id="noE92MuAFSFbdReMbTRC-166" style="edgeStyle=orthogonalEdgeStyle;curved=1;rounded=0;orthogonalLoop=1;jettySize=auto;html=1;exitX=0.5;exitY=0;exitDx=0;exitDy=0;entryX=0;entryY=0.5;entryDx=0;entryDy=0;entryPerimeter=0;endArrow=none;endFill=0;" edge="1" parent="1" source="noE92MuAFSFbdReMbTRC-20" target="noE92MuAFSFbdReMbTRC-139">
          <mxGeometry relative="1" as="geometry" />
        </mxCell>
        <mxCell id="noE92MuAFSFbdReMbTRC-20" value="&lt;div&gt;&lt;div&gt;&lt;b&gt;9° Segundo A&#39;&lt;/b&gt;&lt;/div&gt;Carros:Vermelho&lt;/div&gt;&lt;div&gt;Pedestres:Verde&lt;br&gt;&lt;/div&gt;" style="rounded=1;whiteSpace=wrap;html=1;shadow=0;strokeColor=#000000;fillColor=#FFFFFF;" vertex="1" parent="1">
          <mxGeometry x="767" y="645" width="120" height="60" as="geometry" />
        </mxCell>
        <mxCell id="noE92MuAFSFbdReMbTRC-42" style="edgeStyle=orthogonalEdgeStyle;curved=1;rounded=0;orthogonalLoop=1;jettySize=auto;html=1;exitX=0;exitY=0.5;exitDx=0;exitDy=0;entryX=1;entryY=0.5;entryDx=0;entryDy=0;" edge="1" parent="1" source="noE92MuAFSFbdReMbTRC-21" target="noE92MuAFSFbdReMbTRC-18">
          <mxGeometry relative="1" as="geometry" />
        </mxCell>
        <mxCell id="noE92MuAFSFbdReMbTRC-167" style="edgeStyle=orthogonalEdgeStyle;curved=1;rounded=0;orthogonalLoop=1;jettySize=auto;html=1;entryX=0;entryY=0.5;entryDx=0;entryDy=0;entryPerimeter=0;endArrow=none;endFill=0;" edge="1" parent="1" source="noE92MuAFSFbdReMbTRC-21" target="noE92MuAFSFbdReMbTRC-139">
          <mxGeometry relative="1" as="geometry" />
        </mxCell>
        <mxCell id="noE92MuAFSFbdReMbTRC-21" value="&lt;div&gt;&lt;b&gt;10° Segundo A&#39;&lt;/b&gt;&lt;/div&gt;&lt;div&gt;Carros:Vermelho&lt;/div&gt;&lt;div&gt;Pedestres:Verde&lt;br&gt;&lt;/div&gt;" style="rounded=1;whiteSpace=wrap;html=1;shadow=0;strokeColor=#000000;fillColor=#FFFFFF;" vertex="1" parent="1">
          <mxGeometry x="550" y="645" width="120" height="60" as="geometry" />
        </mxCell>
        <mxCell id="noE92MuAFSFbdReMbTRC-53" style="edgeStyle=orthogonalEdgeStyle;curved=1;rounded=0;orthogonalLoop=1;jettySize=auto;html=1;exitX=0;exitY=0.5;exitDx=0;exitDy=0;" edge="1" parent="1" source="noE92MuAFSFbdReMbTRC-22" target="noE92MuAFSFbdReMbTRC-48">
          <mxGeometry relative="1" as="geometry" />
        </mxCell>
        <mxCell id="noE92MuAFSFbdReMbTRC-157" style="edgeStyle=orthogonalEdgeStyle;curved=1;rounded=0;orthogonalLoop=1;jettySize=auto;html=1;exitX=0.5;exitY=0;exitDx=0;exitDy=0;entryX=0;entryY=0.5;entryDx=0;entryDy=0;entryPerimeter=0;endArrow=none;endFill=0;" edge="1" parent="1" source="noE92MuAFSFbdReMbTRC-22" target="noE92MuAFSFbdReMbTRC-136">
          <mxGeometry relative="1" as="geometry">
            <Array as="points">
              <mxPoint x="290" y="645" />
              <mxPoint x="290" y="340" />
            </Array>
          </mxGeometry>
        </mxCell>
        <mxCell id="noE92MuAFSFbdReMbTRC-22" value="&lt;div&gt;&lt;b&gt;12° Segundo A&#39;&lt;/b&gt;&lt;/div&gt;&lt;div&gt;Carros:Vermelho&lt;/div&gt;&lt;div&gt;Pedestres:Vermelho&lt;br&gt;&lt;/div&gt;" style="rounded=1;whiteSpace=wrap;html=1;shadow=0;strokeColor=#000000;fillColor=#FFFFFF;" vertex="1" parent="1">
          <mxGeometry x="160" y="645" width="120" height="60" as="geometry" />
        </mxCell>
        <mxCell id="noE92MuAFSFbdReMbTRC-47" style="edgeStyle=orthogonalEdgeStyle;curved=1;rounded=0;orthogonalLoop=1;jettySize=auto;html=1;exitX=0.5;exitY=0;exitDx=0;exitDy=0;entryX=0.5;entryY=1;entryDx=0;entryDy=0;" edge="1" parent="1" source="noE92MuAFSFbdReMbTRC-30">
          <mxGeometry relative="1" as="geometry">
            <mxPoint x="80" y="250" as="targetPoint" />
          </mxGeometry>
        </mxCell>
        <mxCell id="noE92MuAFSFbdReMbTRC-46" style="edgeStyle=orthogonalEdgeStyle;curved=1;rounded=0;orthogonalLoop=1;jettySize=auto;html=1;exitX=0.5;exitY=0;exitDx=0;exitDy=0;" edge="1" parent="1" source="noE92MuAFSFbdReMbTRC-31">
          <mxGeometry relative="1" as="geometry">
            <mxPoint x="80" y="370" as="targetPoint" />
          </mxGeometry>
        </mxCell>
        <mxCell id="noE92MuAFSFbdReMbTRC-45" style="edgeStyle=orthogonalEdgeStyle;curved=1;rounded=0;orthogonalLoop=1;jettySize=auto;html=1;exitX=0.5;exitY=0;exitDx=0;exitDy=0;entryX=0.5;entryY=1;entryDx=0;entryDy=0;" edge="1" parent="1" source="noE92MuAFSFbdReMbTRC-32">
          <mxGeometry relative="1" as="geometry">
            <mxPoint x="80" y="490" as="targetPoint" />
          </mxGeometry>
        </mxCell>
        <mxCell id="noE92MuAFSFbdReMbTRC-57" style="edgeStyle=orthogonalEdgeStyle;curved=1;rounded=0;orthogonalLoop=1;jettySize=auto;html=1;" edge="1" parent="1" source="noE92MuAFSFbdReMbTRC-48" target="noE92MuAFSFbdReMbTRC-49">
          <mxGeometry relative="1" as="geometry" />
        </mxCell>
        <mxCell id="noE92MuAFSFbdReMbTRC-155" style="edgeStyle=orthogonalEdgeStyle;curved=1;rounded=0;orthogonalLoop=1;jettySize=auto;html=1;exitX=1;exitY=0.5;exitDx=0;exitDy=0;entryX=0;entryY=0.5;entryDx=0;entryDy=0;entryPerimeter=0;endArrow=none;endFill=0;" edge="1" parent="1" source="noE92MuAFSFbdReMbTRC-48" target="noE92MuAFSFbdReMbTRC-136">
          <mxGeometry relative="1" as="geometry" />
        </mxCell>
        <mxCell id="noE92MuAFSFbdReMbTRC-48" value="&lt;div&gt;&lt;div&gt;&lt;b&gt;13° Segundo A&#39;&lt;/b&gt;&lt;/div&gt;Carros:Vermelho&lt;/div&gt;&lt;div&gt;Pedestres:Apagado&lt;br&gt;&lt;/div&gt;" style="rounded=1;whiteSpace=wrap;html=1;shadow=0;strokeColor=#000000;fillColor=#FFFFFF;" vertex="1" parent="1">
          <mxGeometry x="10" y="555" width="120" height="60" as="geometry" />
        </mxCell>
        <mxCell id="noE92MuAFSFbdReMbTRC-56" style="edgeStyle=orthogonalEdgeStyle;curved=1;rounded=0;orthogonalLoop=1;jettySize=auto;html=1;entryX=0.5;entryY=1;entryDx=0;entryDy=0;" edge="1" parent="1" source="noE92MuAFSFbdReMbTRC-49" target="noE92MuAFSFbdReMbTRC-50">
          <mxGeometry relative="1" as="geometry" />
        </mxCell>
        <mxCell id="noE92MuAFSFbdReMbTRC-154" style="edgeStyle=orthogonalEdgeStyle;curved=1;rounded=0;orthogonalLoop=1;jettySize=auto;html=1;exitX=1;exitY=0.5;exitDx=0;exitDy=0;entryX=0;entryY=0.5;entryDx=0;entryDy=0;entryPerimeter=0;endArrow=none;endFill=0;" edge="1" parent="1" source="noE92MuAFSFbdReMbTRC-49" target="noE92MuAFSFbdReMbTRC-136">
          <mxGeometry relative="1" as="geometry">
            <Array as="points">
              <mxPoint x="130" y="450" />
              <mxPoint x="255" y="450" />
              <mxPoint x="255" y="340" />
            </Array>
          </mxGeometry>
        </mxCell>
        <mxCell id="noE92MuAFSFbdReMbTRC-49" value="&lt;div&gt;&lt;b&gt;14° Segundo A&#39;&lt;/b&gt;&lt;/div&gt;&lt;div&gt;Carros:Vermelho&lt;/div&gt;&lt;div&gt;Pedestres:Vermelho&lt;br&gt;&lt;/div&gt;" style="rounded=1;whiteSpace=wrap;html=1;shadow=0;strokeColor=#000000;fillColor=#FFFFFF;" vertex="1" parent="1">
          <mxGeometry x="10" y="429.99999999999994" width="120" height="60" as="geometry" />
        </mxCell>
        <mxCell id="noE92MuAFSFbdReMbTRC-55" style="edgeStyle=orthogonalEdgeStyle;curved=1;rounded=0;orthogonalLoop=1;jettySize=auto;html=1;" edge="1" parent="1" source="noE92MuAFSFbdReMbTRC-50" target="noE92MuAFSFbdReMbTRC-51">
          <mxGeometry relative="1" as="geometry" />
        </mxCell>
        <mxCell id="noE92MuAFSFbdReMbTRC-153" style="edgeStyle=orthogonalEdgeStyle;curved=1;rounded=0;orthogonalLoop=1;jettySize=auto;html=1;exitX=1;exitY=0.5;exitDx=0;exitDy=0;entryX=0;entryY=0.5;entryDx=0;entryDy=0;entryPerimeter=0;endArrow=none;endFill=0;" edge="1" parent="1" source="noE92MuAFSFbdReMbTRC-50" target="noE92MuAFSFbdReMbTRC-136">
          <mxGeometry relative="1" as="geometry" />
        </mxCell>
        <mxCell id="noE92MuAFSFbdReMbTRC-50" value="&lt;div&gt;&lt;b&gt;15° Segundo A&#39;&lt;/b&gt;&lt;/div&gt;&lt;div&gt;Carros:Vermelho&lt;/div&gt;&lt;div&gt;Pedestres:Apagado&lt;br&gt;&lt;/div&gt;" style="rounded=1;whiteSpace=wrap;html=1;shadow=0;strokeColor=#000000;fillColor=#FFFFFF;" vertex="1" parent="1">
          <mxGeometry x="10" y="309.99999999999994" width="120" height="60" as="geometry" />
        </mxCell>
        <mxCell id="noE92MuAFSFbdReMbTRC-54" style="edgeStyle=orthogonalEdgeStyle;curved=1;rounded=0;orthogonalLoop=1;jettySize=auto;html=1;entryX=0;entryY=0.5;entryDx=0;entryDy=0;exitX=0.5;exitY=0;exitDx=0;exitDy=0;" edge="1" parent="1" source="noE92MuAFSFbdReMbTRC-51" target="noE92MuAFSFbdReMbTRC-1">
          <mxGeometry relative="1" as="geometry" />
        </mxCell>
        <mxCell id="noE92MuAFSFbdReMbTRC-152" style="edgeStyle=orthogonalEdgeStyle;curved=1;rounded=0;orthogonalLoop=1;jettySize=auto;html=1;exitX=1;exitY=1;exitDx=0;exitDy=0;entryX=0;entryY=0.5;entryDx=0;entryDy=0;entryPerimeter=0;endArrow=none;endFill=0;" edge="1" parent="1" source="noE92MuAFSFbdReMbTRC-51" target="noE92MuAFSFbdReMbTRC-136">
          <mxGeometry relative="1" as="geometry" />
        </mxCell>
        <mxCell id="noE92MuAFSFbdReMbTRC-51" value="&lt;div&gt;&lt;b&gt;16° Segundo A&#39;&lt;/b&gt;&lt;/div&gt;&lt;div&gt;Carros:Vermelho&lt;/div&gt;&lt;div&gt;Pedestres:Vermelho&lt;br&gt;&lt;/div&gt;" style="rounded=1;whiteSpace=wrap;html=1;shadow=0;strokeColor=#000000;fillColor=#FFFFFF;" vertex="1" parent="1">
          <mxGeometry x="10" y="189.9999999999999" width="120" height="60" as="geometry" />
        </mxCell>
        <mxCell id="noE92MuAFSFbdReMbTRC-177" style="edgeStyle=orthogonalEdgeStyle;curved=1;rounded=0;orthogonalLoop=1;jettySize=auto;html=1;exitX=0.5;exitY=0;exitDx=0;exitDy=0;entryX=0.75;entryY=1;entryDx=0;entryDy=0;endArrow=classic;endFill=1;strokeColor=#FF3333;" edge="1" parent="1" source="noE92MuAFSFbdReMbTRC-58" target="noE92MuAFSFbdReMbTRC-1">
          <mxGeometry relative="1" as="geometry" />
        </mxCell>
        <mxCell id="noE92MuAFSFbdReMbTRC-181" style="edgeStyle=orthogonalEdgeStyle;curved=1;rounded=0;orthogonalLoop=1;jettySize=auto;html=1;exitX=0.75;exitY=1;exitDx=0;exitDy=0;entryX=0.75;entryY=0;entryDx=0;entryDy=0;endArrow=classic;endFill=1;strokeColor=#FF3333;" edge="1" parent="1" source="noE92MuAFSFbdReMbTRC-58" target="noE92MuAFSFbdReMbTRC-59">
          <mxGeometry relative="1" as="geometry" />
        </mxCell>
        <mxCell id="noE92MuAFSFbdReMbTRC-58" value="&lt;b&gt;1° Segundo A&lt;br&gt;&lt;/b&gt;&lt;div&gt;Carros:Amarelo&lt;/div&gt;&lt;div&gt;Pedestres:Apagado&lt;/div&gt;" style="rounded=1;whiteSpace=wrap;html=1;shadow=0;strokeColor=#000000;fillColor=#FFFFFF;" vertex="1" parent="1">
          <mxGeometry x="480" y="310" width="120" height="60" as="geometry" />
        </mxCell>
        <mxCell id="noE92MuAFSFbdReMbTRC-178" style="edgeStyle=orthogonalEdgeStyle;curved=1;rounded=0;orthogonalLoop=1;jettySize=auto;html=1;exitX=0;exitY=0.5;exitDx=0;exitDy=0;entryX=0.25;entryY=1;entryDx=0;entryDy=0;endArrow=classic;endFill=1;strokeColor=#FF3333;" edge="1" parent="1" source="noE92MuAFSFbdReMbTRC-59" target="noE92MuAFSFbdReMbTRC-1">
          <mxGeometry relative="1" as="geometry" />
        </mxCell>
        <mxCell id="noE92MuAFSFbdReMbTRC-180" style="edgeStyle=orthogonalEdgeStyle;curved=1;rounded=0;orthogonalLoop=1;jettySize=auto;html=1;exitX=0.25;exitY=0;exitDx=0;exitDy=0;entryX=0.25;entryY=1;entryDx=0;entryDy=0;endArrow=classic;endFill=1;strokeColor=#FF3333;" edge="1" parent="1" source="noE92MuAFSFbdReMbTRC-59" target="noE92MuAFSFbdReMbTRC-58">
          <mxGeometry relative="1" as="geometry" />
        </mxCell>
        <mxCell id="noE92MuAFSFbdReMbTRC-59" value="&lt;b&gt;2° Segundo A&lt;/b&gt;&lt;div&gt;Carros:Apagado&lt;/div&gt;&lt;div&gt;Pedestres:Apagado&lt;/div&gt;" style="rounded=1;whiteSpace=wrap;html=1;shadow=0;strokeColor=#000000;fillColor=#FFFFFF;" vertex="1" parent="1">
          <mxGeometry x="480" y="440" width="120" height="60" as="geometry" />
        </mxCell>
        <mxCell id="noE92MuAFSFbdReMbTRC-105" value="A&#39;" style="text;html=1;align=center;verticalAlign=middle;resizable=0;points=[];autosize=1;" vertex="1" parent="1">
          <mxGeometry x="315" y="90" width="30" height="20" as="geometry" />
        </mxCell>
        <mxCell id="noE92MuAFSFbdReMbTRC-108" value="A&#39;" style="text;html=1;align=center;verticalAlign=middle;resizable=0;points=[];autosize=1;" vertex="1" parent="1">
          <mxGeometry x="525" y="90" width="30" height="20" as="geometry" />
        </mxCell>
        <mxCell id="noE92MuAFSFbdReMbTRC-109" value="A&#39;" style="text;html=1;align=center;verticalAlign=middle;resizable=0;points=[];autosize=1;" vertex="1" parent="1">
          <mxGeometry x="720" y="90" width="30" height="20" as="geometry" />
        </mxCell>
        <mxCell id="noE92MuAFSFbdReMbTRC-120" value="A&#39;" style="text;html=1;align=center;verticalAlign=middle;resizable=0;points=[];autosize=1;" vertex="1" parent="1">
          <mxGeometry x="60" y="110" width="30" height="20" as="geometry" />
        </mxCell>
        <mxCell id="noE92MuAFSFbdReMbTRC-121" value="A&#39;" style="text;html=1;align=center;verticalAlign=middle;resizable=0;points=[];autosize=1;" vertex="1" parent="1">
          <mxGeometry x="1010" y="390" width="30" height="20" as="geometry" />
        </mxCell>
        <mxCell id="noE92MuAFSFbdReMbTRC-122" value="A&#39;" style="text;html=1;align=center;verticalAlign=middle;resizable=0;points=[];autosize=1;" vertex="1" parent="1">
          <mxGeometry x="1010" y="270" width="30" height="20" as="geometry" />
        </mxCell>
        <mxCell id="noE92MuAFSFbdReMbTRC-123" value="A&#39;" style="text;html=1;align=center;verticalAlign=middle;resizable=0;points=[];autosize=1;" vertex="1" parent="1">
          <mxGeometry x="1010" y="640" width="30" height="20" as="geometry" />
        </mxCell>
        <mxCell id="noE92MuAFSFbdReMbTRC-124" value="A&#39;" style="text;html=1;align=center;verticalAlign=middle;resizable=0;points=[];autosize=1;" vertex="1" parent="1">
          <mxGeometry x="1010" y="510" width="30" height="20" as="geometry" />
        </mxCell>
        <mxCell id="noE92MuAFSFbdReMbTRC-125" value="A&#39;" style="text;html=1;align=center;verticalAlign=middle;resizable=0;points=[];autosize=1;" vertex="1" parent="1">
          <mxGeometry x="980" y="100" width="30" height="20" as="geometry" />
        </mxCell>
        <mxCell id="noE92MuAFSFbdReMbTRC-126" value="A&#39;" style="text;html=1;align=center;verticalAlign=middle;resizable=0;points=[];autosize=1;" vertex="1" parent="1">
          <mxGeometry x="30" y="380" width="30" height="20" as="geometry" />
        </mxCell>
        <mxCell id="noE92MuAFSFbdReMbTRC-127" value="A&#39;" style="text;html=1;align=center;verticalAlign=middle;resizable=0;points=[];autosize=1;" vertex="1" parent="1">
          <mxGeometry x="30" y="260" width="30" height="20" as="geometry" />
        </mxCell>
        <mxCell id="noE92MuAFSFbdReMbTRC-128" value="A&#39;" style="text;html=1;align=center;verticalAlign=middle;resizable=0;points=[];autosize=1;" vertex="1" parent="1">
          <mxGeometry x="30" y="630" width="30" height="20" as="geometry" />
        </mxCell>
        <mxCell id="noE92MuAFSFbdReMbTRC-129" value="A&#39;" style="text;html=1;align=center;verticalAlign=middle;resizable=0;points=[];autosize=1;" vertex="1" parent="1">
          <mxGeometry x="30" y="500" width="30" height="20" as="geometry" />
        </mxCell>
        <mxCell id="noE92MuAFSFbdReMbTRC-130" value="A&#39;" style="text;html=1;align=center;verticalAlign=middle;resizable=0;points=[];autosize=1;" vertex="1" parent="1">
          <mxGeometry x="300" y="690" width="30" height="20" as="geometry" />
        </mxCell>
        <mxCell id="noE92MuAFSFbdReMbTRC-131" value="A&#39;" style="text;html=1;align=center;verticalAlign=middle;resizable=0;points=[];autosize=1;" vertex="1" parent="1">
          <mxGeometry x="510" y="690" width="30" height="20" as="geometry" />
        </mxCell>
        <mxCell id="noE92MuAFSFbdReMbTRC-132" value="A&#39;" style="text;html=1;align=center;verticalAlign=middle;resizable=0;points=[];autosize=1;" vertex="1" parent="1">
          <mxGeometry x="705" y="690" width="30" height="20" as="geometry" />
        </mxCell>
        <mxCell id="noE92MuAFSFbdReMbTRC-136" value="A" style="html=1;shadow=0;dashed=0;align=center;verticalAlign=middle;shape=mxgraph.arrows2.arrow;dy=0.6;dx=40;notch=0;" vertex="1" parent="1">
          <mxGeometry x="380" y="305" width="100" height="70" as="geometry" />
        </mxCell>
        <mxCell id="noE92MuAFSFbdReMbTRC-139" value="A" style="html=1;shadow=0;dashed=0;align=center;verticalAlign=middle;shape=mxgraph.arrows2.arrow;dy=0.6;dx=40;flipH=1;notch=0;" vertex="1" parent="1">
          <mxGeometry x="600" y="305" width="100" height="70" as="geometry" />
        </mxCell>
        <mxCell id="noE92MuAFSFbdReMbTRC-182" value="A" style="text;html=1;align=center;verticalAlign=middle;resizable=0;points=[];autosize=1;" vertex="1" parent="1">
          <mxGeometry x="490" y="400" width="20" height="20" as="geometry" />
        </mxCell>
        <mxCell id="noE92MuAFSFbdReMbTRC-183" value="A" style="text;html=1;align=center;verticalAlign=middle;resizable=0;points=[];autosize=1;" vertex="1" parent="1">
          <mxGeometry x="580" y="400" width="20" height="20" as="geometry" />
        </mxCell>
        <mxCell id="noE92MuAFSFbdReMbTRC-184" value="A&#39;" style="text;html=1;align=center;verticalAlign=middle;resizable=0;points=[];autosize=1;" vertex="1" parent="1">
          <mxGeometry x="275" y="180" width="30" height="20" as="geometry" />
        </mxCell>
        <mxCell id="noE92MuAFSFbdReMbTRC-186" value="A&#39;" style="text;html=1;align=center;verticalAlign=middle;resizable=0;points=[];autosize=1;" vertex="1" parent="1">
          <mxGeometry x="165" y="180" width="30" height="20" as="geometry" />
        </mxCell>
      </root>
    </mxGraphModel>
  </diagram>
</mxfile>
